<?xml version="1.0" encoding="utf-8"?>
<!-- Generator: Adobe Illustrator 24.0.3, SVG Export Plug-In . SVG Version: 6.00 Build 0)  -->
<svg version="1.1" id="Layer_1" xmlns="http://www.w3.org/2000/svg" xmlns:xlink="http://www.w3.org/1999/xlink" x="0px" y="0px"
	 width="160px" height="50px" viewBox="0 0 160 50" style="enable-background:new 0 0 160 50;" xml:space="preserve">
<style type="text/css">
	.st0{display:none;}
	.st1{display:inline;fill:#8E9A3D;}
	.st2{fill:#F6E599;}
	.st3{fill:#A56631;}
	.st4{fill:#B9CF46;}
	.st5{fill:#FFFFFF;}
	.st6{fill:#8E9A3D;}
	.st7{fill:#495026;}
	.st8{display:none;fill:#495026;}
</style>
<g class="st0">
	<path class="st1" d="M15.1,43.3c-0.7,1.1-2.3,3.9-6.9,3.9c-5.1,0-8-3.9-8-7.7c0-5.2,4.1-8,8.2-8c4.3,0,5.8,2.4,6.7,3.8l-1.7,1.2
		c-0.7-0.8-1.6-1.7-3.2-1.7c-2.2,0-3.7,1.7-3.7,4.4c0,2.3,1.1,4.6,3.6,4.6c1.8,0,2.7-1.1,3.3-1.8L15.1,43.3z"/>
	<path class="st1" d="M32.9,39.4c0,4-2.8,7.9-8.7,7.9c-5.3,0-8.5-3.4-8.5-7.8c0-4.5,3.3-7.9,8.6-7.9C30.4,31.5,32.9,35.7,32.9,39.4z
		 M22.1,39.3c0,3.1,0.7,4.8,2.2,4.8c1.3,0,1.7-1.1,1.9-1.5c0.3-0.9,0.4-2.1,0.4-3.1c0-0.5,0-2.5-0.6-3.7c-0.2-0.3-0.6-1-1.6-1
		C22.2,34.8,22.1,38.2,22.1,39.3z"/>
	<path class="st1" d="M41.1,34.3c0.6-0.9,1.8-2.7,4.9-2.7c3.2,0,4,2,4.4,2.7c0.7-1,1.8-2.7,4.8-2.7c0.6,0,2.5,0,3.8,1.4
		c1.1,1.1,1.1,2.5,1.1,3.5v10.3H54V38c0-0.6,0-2.3-1.6-2.3c-0.9,0-1.4,0.5-1.8,1v10.2h-6.1v-8.5c0-0.8,0-2.6-1.7-2.6
		c-1,0-1.4,0.6-1.7,0.9v10.2h-6V32.2h6C41.1,32.2,41.1,34.3,41.1,34.3z"/>
	<path class="st1" d="M68.9,34.1c0.7-1,1.8-2.3,4.3-2.3c4,0,6.2,3.6,6.2,7.6c0,4.7-2.7,7.9-6.4,7.9c-2.5,0-3.6-1.4-4.1-2v5.6h-6.1
		V32.2h6.1V34.1z M68.9,42.8c0.4,0.3,0.8,0.6,1.6,0.6c1.2,0,2.6-1,2.6-3.8c0-2-0.7-3.8-2.5-3.8c-0.7,0-1.1,0.2-1.7,0.6V42.8z"/>
	<path class="st1" d="M95.9,46.7h-6.1v-1.9c-0.7,1-1.8,2.4-4.5,2.4c-3.1,0-4.8-2.2-4.8-4.8c0-3.2,2.6-5,5.8-5c1.6,0,2.7,0.4,3.5,0.6
		c0-0.9,0-2-1.1-2.9c-0.7-0.6-1.5-0.6-2-0.6c-1.9,0-3,1.1-3.7,1.9l-1.8-1.5c1.3-1.5,3.2-3.4,7.5-3.4c2.9,0,4.3,0.9,4.7,1.2
		c2.4,1.5,2.4,3.7,2.4,5.3L95.9,46.7L95.9,46.7z M89.8,40.5c-0.5-0.1-0.8-0.2-1.3-0.2c-1.6,0-2.1,1.1-2.1,1.8c0,0.8,0.6,1.6,1.5,1.6
		s1.4-0.5,1.9-1V40.5z"/>
	<path class="st1" d="M113.8,46.7h-6.1v-8.9c0-1.2-0.4-2.2-1.6-2.2c-0.9,0-1.4,0.6-1.8,1v10h-6V32.2h6v2c0.8-1,2-2.6,4.8-2.6
		c2.2,0,3.3,1,3.7,1.5c1,1.1,1,2.4,1,3.5V46.7z"/>
	<path class="st1" d="M116.3,28.2c0-0.9,1-2.5,3.3-2.5s3.3,1.6,3.3,2.5s-1,2.5-3.3,2.5c-0.8,0-1.7-0.2-2.3-0.7
		C116.8,29.5,116.3,28.8,116.3,28.2z M116.6,32.2h6.1v14.5h-6.1V32.2z"/>
	<path class="st1" d="M159.8,46.7h-6.1v-8.9c0-1.2-0.4-2.2-1.6-2.2c-0.9,0-1.4,0.6-1.8,1v10h-6V32.2h6v2c0.8-1,2-2.6,4.8-2.6
		c2.2,0,3.3,1,3.7,1.5c1,1.1,1,2.4,1,3.5L159.8,46.7L159.8,46.7z"/>
</g>
<g>
	<g>
		<path class="st2" d="M59.6,13.7c0.3,7.4-5.8,12.7-10.5,12.4c-4.3-0.3-8.2-6.2-7.7-13.7C41.7,6.5,47.2-0.3,51,0
			C55,0.4,59.3,7.2,59.6,13.7z"/>
		<path class="st3" d="M59.6,13.7c0.3,7.4-5.8,12.7-10.5,12.4c-4.3-0.3-8.2-6.2-7.7-13.7C41.7,6.5,47.2-0.3,51,0
			C55,0.4,59.3,7.2,59.6,13.7z"/>
	</g>
	<g>
		<path class="st2" d="M59.3,13.6c0.3,7-5.6,11.8-10.2,11.4c-4.2-0.3-8-5.8-7.5-12.8C42,6.7,47.3,0.4,50.9,0.7
			C54.9,1.1,59.1,7.5,59.3,13.6z"/>
		<path class="st4" d="M59.3,13.6c0.3,7-5.6,11.8-10.2,11.4c-4.2-0.3-8-5.8-7.5-12.8C42,6.7,47.3,0.4,50.9,0.7
			C54.9,1.1,59.1,7.5,59.3,13.6z"/>
	</g>
	<g>
		<path class="st2" d="M58.2,13.7c0.3,6.4-4.9,10.7-9,10.5c-3.8-0.3-7-5.2-6.6-11.6C43,7.5,47.6,1.8,50.8,2
			C54.3,2.3,58,8.1,58.2,13.7z"/>
		<path class="st2" d="M57.8,13.6c0.3,6-4.7,10.2-8.5,9.9c-3.6-0.3-6.7-4.9-6.2-11c0.4-4.8,4.7-10.2,7.7-10
			C54.1,2.8,57.6,8.3,57.8,13.6z"/>
	</g>
	
		<ellipse transform="matrix(7.457279e-02 -0.9972 0.9972 7.457279e-02 31.1053 64.4394)" class="st4" cx="50.3" cy="15.5" rx="5.1" ry="4.6"/>
	
		<ellipse transform="matrix(7.457279e-02 -0.9972 0.9972 7.457279e-02 32.1106 63.6939)" class="st3" cx="50.4" cy="14.5" rx="5.1" ry="4.6"/>
	<ellipse class="st5" cx="50.5" cy="12.2" rx="0.8" ry="0.8"/>
</g>
<g>
	<g>
		<path class="st2" d="M142.7,37.6c0.3,7.4-5.8,12.7-10.5,12.4c-4.3-0.3-8.2-6.2-7.7-13.7c0.3-5.9,5.8-12.7,9.6-12.4
			C138.1,24.3,142.4,31.1,142.7,37.6z"/>
		<path class="st3" d="M142.7,37.6c0.3,7.4-5.8,12.7-10.5,12.4c-4.3-0.3-8.2-6.2-7.7-13.7c0.3-5.9,5.8-12.7,9.6-12.4
			C138.1,24.3,142.4,31.1,142.7,37.6z"/>
	</g>
	<g>
		<path class="st2" d="M142.4,37.5c0.3,7-5.6,11.8-10.2,11.4c-4.2-0.3-8-5.8-7.5-12.8c0.4-5.5,5.7-11.8,9.3-11.5
			C138,25,142.2,31.4,142.4,37.5z"/>
		<path class="st4" d="M142.4,37.5c0.3,7-5.6,11.8-10.2,11.4c-4.2-0.3-8-5.8-7.5-12.8c0.4-5.5,5.7-11.8,9.3-11.5
			C138,25,142.2,31.4,142.4,37.5z"/>
	</g>
	<g>
		<path class="st2" d="M141.3,37.6c0.3,6.4-4.9,10.7-9,10.5c-3.8-0.3-7-5.2-6.6-11.6c0.4-5,4.9-10.7,8.2-10.5
			C137.4,26.2,141.1,32,141.3,37.6z"/>
		<path class="st2" d="M140.9,37.5c0.3,6-4.7,10.2-8.6,9.9c-3.6-0.3-6.7-5-6.2-11c0.4-4.8,4.7-10.2,7.7-10
			C137.2,26.7,140.7,32.2,140.9,37.5z"/>
	</g>
	
		<ellipse transform="matrix(7.457279e-02 -0.9972 0.9972 7.457279e-02 84.1347 169.3887)" class="st4" cx="133.3" cy="39.4" rx="5.1" ry="4.6"/>
	
		<ellipse transform="matrix(7.457279e-02 -0.9972 0.9972 7.457279e-02 85.14 168.6431)" class="st3" cx="133.4" cy="38.4" rx="5.1" ry="4.6"/>
	<ellipse class="st5" cx="133.6" cy="36.1" rx="0.8" ry="0.8"/>
</g>
<g>
	<path class="st6" d="M15,19c-0.7,1.1-2.3,3.9-7,3.9c-5.1,0-8-3.9-8-7.7c0-5.2,4.1-8,8.2-8c4.3,0,5.9,2.4,6.7,3.8l-1.7,1.2
		c-0.7-0.8-1.6-1.7-3.2-1.7c-2.2,0-3.7,1.7-3.7,4.4c0,2.3,1.1,4.6,3.6,4.6c1.8,0,2.7-1.1,3.3-1.8L15,19z"/>
	<path class="st6" d="M31,22.4h-6.1v-1.9c-0.7,1-1.8,2.4-4.5,2.4c-3.1,0-4.8-2.2-4.8-4.8c0-3.2,2.6-5,5.8-5c1.6,0,2.7,0.4,3.5,0.6
		c0-0.9,0-2-1.1-2.9c-0.7-0.6-1.5-0.6-2-0.6c-1.9,0-3,1.1-3.7,1.9l-1.8-1.5c1.3-1.5,3.2-3.4,7.5-3.4c2.9,0,4.3,0.9,4.7,1.2
		C30.9,9.8,31,12,31,13.6V22.4z M24.8,16.2C24.4,16.1,24,16,23.5,16c-1.6,0-2.1,1.1-2.1,1.8c0,0.8,0.6,1.6,1.5,1.6s1.4-0.5,1.9-1
		V16.2z"/>
	<path class="st6" d="M33.4,3.7h6.1v18.8h-6.1V3.7z"/>
	<path class="st6" d="M67.2,10.2c0.9-1.8,2.2-2.8,4.2-2.8c0.4,0,0.6,0,1,0.1v5.1c-0.9-0.5-1.6-1-2.8-1c-1.3,0-1.9,0.5-2.3,0.8v10
		h-6.1V7.9h6.1L67.2,10.2L67.2,10.2z"/>
	<path class="st6" d="M73.1,3.9c0-0.9,1-2.5,3.3-2.5s3.3,1.6,3.3,2.5s-1,2.5-3.3,2.5c-0.8,0-1.7-0.2-2.3-0.7
		C73.5,5.2,73.1,4.5,73.1,3.9z M73.3,7.9h6.1v14.5h-6.1V7.9z"/>
	<path class="st6" d="M97.1,19.1c-0.7,1-2.7,3.8-7.2,3.8c-5.2,0-8.3-3.3-8.3-7.8c0-4.6,3.2-7.9,8-7.9c2,0,3.5,0.6,4.6,1.2
		c3.5,2.2,3.5,6.1,3.5,8h-9.9c0.1,0.9,0.3,1.8,1.4,2.5c0.8,0.6,1.6,0.7,2.5,0.7c2,0,3.2-1.2,3.9-1.9L97.1,19.1z M91.8,13.3
		c-0.1-0.9-0.2-2.9-2.1-2.9c-1.8,0-2.1,1.9-2.2,2.9C87.5,13.3,91.8,13.3,91.8,13.3z"/>
</g>
<g>
	<path class="st7" d="M15,42.3c-0.7,1.1-2.3,3.9-7,3.9c-5.1,0-8-3.9-8-7.7c0-5.2,4.1-8,8.2-8c4.3,0,5.9,2.4,6.7,3.8l-1.7,1.2
		c-0.7-0.8-1.6-1.7-3.2-1.7c-2.2,0-3.7,1.7-3.7,4.4c0,2.3,1.1,4.6,3.6,4.6c1.8,0,2.7-1.1,3.3-1.8L15,42.3z"/>
	<path class="st7" d="M32.8,38.4c0,4-2.8,7.9-8.7,7.9c-5.3,0-8.5-3.4-8.5-7.8c0-4.5,3.3-7.9,8.6-7.9C30.3,30.5,32.8,34.7,32.8,38.4z
		 M22,38.2c0,3.1,0.7,4.8,2.2,4.8c1.3,0,1.7-1.1,1.9-1.5c0.3-0.9,0.4-2.1,0.4-3.1c0-0.5,0-2.5-0.6-3.7c-0.2-0.3-0.6-1-1.6-1
		C22.1,33.7,22,37.2,22,38.2z"/>
	<path class="st8" d="M142.1,38.4c0,4-2.8,7.9-8.7,7.9c-5.3,0-8.5-3.4-8.5-7.8c0-4.5,3.3-7.9,8.6-7.9
		C139.6,30.5,142.1,34.7,142.1,38.4z M131.3,38.2c0,3.1,0.7,4.8,2.2,4.8c1.3,0,1.7-1.1,1.9-1.5c0.3-0.9,0.4-2.1,0.4-3.1
		c0-0.5,0-2.5-0.6-3.7c-0.2-0.3-0.6-1-1.6-1C131.4,33.7,131.3,37.2,131.3,38.2z"/>
	<path class="st7" d="M41,33.2c0.6-0.9,1.8-2.7,4.9-2.7c3.2,0,4,2,4.4,2.7c0.7-1,1.8-2.7,4.8-2.7c0.6,0,2.5,0,3.8,1.4
		C60,33,60,34.4,60,35.4v10.3h-6.1v-8.8c0-0.6,0-2.3-1.7-2.3c-0.9,0-1.4,0.5-1.8,1v10.2h-6.1v-8.5c0-0.8,0-2.6-1.7-2.6
		c-1,0-1.4,0.6-1.7,0.9v10.2h-6V31.1h6L41,33.2L41,33.2z"/>
	<path class="st7" d="M68.9,33.1c0.7-1,1.8-2.3,4.3-2.3c4,0,6.2,3.6,6.2,7.6c0,4.7-2.7,7.9-6.4,7.9c-2.5,0-3.6-1.4-4.2-2v5.6h-6.1
		V31.1h6.1L68.9,33.1L68.9,33.1z M68.9,41.8c0.4,0.3,0.8,0.6,1.6,0.6c1.2,0,2.6-1,2.6-3.8c0-2-0.7-3.8-2.5-3.8
		c-0.7,0-1.1,0.2-1.7,0.6V41.8z"/>
	<path class="st7" d="M95.9,45.7h-6.1v-1.9c-0.7,1-1.8,2.4-4.5,2.4c-3.1,0-4.8-2.2-4.8-4.8c0-3.2,2.6-5,5.8-5c1.6,0,2.7,0.4,3.5,0.6
		c0-0.9,0-2-1.1-2.9c-0.7-0.6-1.5-0.6-2-0.6c-1.9,0-3,1.1-3.7,1.9l-1.8-1.5c1.3-1.5,3.2-3.4,7.5-3.4c2.9,0,4.3,0.9,4.7,1.2
		c2.4,1.5,2.5,3.7,2.5,5.3V45.7z M89.8,39.4c-0.5-0.1-0.8-0.2-1.3-0.2c-1.6,0-2.1,1.1-2.1,1.8c0,0.8,0.6,1.6,1.5,1.6s1.4-0.5,1.9-1
		V39.4z"/>
	<path class="st7" d="M113.9,45.7h-6.1v-8.9c0-1.2-0.4-2.2-1.6-2.2c-0.9,0-1.4,0.6-1.8,1v10h-6V31.1h6v2c0.8-1,2.1-2.6,4.8-2.6
		c2.2,0,3.3,1,3.7,1.5c1,1.1,1,2.4,1,3.5V45.7z"/>
	<path class="st7" d="M116.4,27.1c0-0.9,1-2.5,3.3-2.5s3.3,1.6,3.3,2.5s-1,2.5-3.3,2.5c-0.8,0-1.7-0.2-2.3-0.7
		C116.9,28.5,116.4,27.8,116.4,27.1z M116.7,31.1h6.1v14.5h-6.1V31.1z"/>
	<path class="st7" d="M160,45.7h-6.1v-8.9c0-1.2-0.4-2.2-1.6-2.2c-0.9,0-1.4,0.6-1.8,1v10h-6V31.1h6v2c0.8-1,2.1-2.6,4.8-2.6
		c2.2,0,3.3,1,3.7,1.5c1,1.1,1,2.4,1,3.5L160,45.7L160,45.7z"/>
</g>
</svg>
