<?xml version="1.0" encoding="iso-8859-1"?>
<!-- Generator: Adobe Illustrator 24.0.3, SVG Export Plug-In . SVG Version: 6.00 Build 0)  -->
<svg version="1.1" id="Layer_1" xmlns="http://www.w3.org/2000/svg" xmlns:xlink="http://www.w3.org/1999/xlink" x="0px" y="0px"
	 width="200px" height="75px" viewBox="0 0 200 75" enable-background="new 0 0 200 75" xml:space="preserve">
<g>
	<g>
		<g>
			<defs>
				<rect id="SVGID_1_" width="200" height="75"/>
			</defs>
			<clipPath id="SVGID_2_">
				<use xlink:href="#SVGID_1_"  overflow="visible"/>
			</clipPath>
			<path clip-path="url(#SVGID_2_)" fill="#0043EF" d="M181.927,48.239c0,1.681-1.439,2.741-3.143,2.741h-5.149v-5.483h5.149
				C180.488,45.497,181.927,46.557,181.927,48.239 M181.208,64.562h7.451l-5.143-8.947c2.344-0.803,5.029-3.066,5.029-7.303
				c0-4.53-3.176-8.106-8.776-8.106H167.13v24.356h6.505v-8.254h3.332L181.208,64.562z M144.84,64.562h18.501v-5.291h-11.997v-4.388
				h11.732v-5.327h-11.732v-4.059h11.997v-5.291H144.84V64.562z M128.188,64.562h6.505V45.68h7.039v-5.474h-20.621v5.474h7.077
				V64.562z M111.726,64.562h6.278V40.206h-6.543v14.022l-10.222-14.022h-6.694v24.356h6.504V49.846L111.726,64.562z M66.578,54.705
				c0,5.989,3.63,10.295,11.729,10.295s11.692-4.27,11.692-10.331V40.206h-6.618v14.28c0,2.886-1.591,4.967-5.074,4.967
				c-3.521,0-5.111-2.081-5.111-4.967v-14.28h-6.618L66.578,54.705L66.578,54.705z M56.663,52.402c0,3.946-2.688,7.051-6.853,7.051
				c-4.202,0-6.89-3.105-6.89-7.051c0-3.982,2.688-7.051,6.89-7.051C53.975,45.351,56.663,48.42,56.663,52.402 M36.302,52.402
				C36.302,59.818,42.088,65,49.81,65s13.471-5.182,13.471-12.598S57.532,39.805,49.81,39.805S36.302,44.986,36.302,52.402
				 M23.582,65c6.282,0,9.575-3.394,11.202-6.533l-5.601-2.557c-0.833,1.936-2.99,3.543-5.601,3.543c-3.936,0-6.85-3.069-6.85-7.051
				s2.914-7.051,6.85-7.051c2.611,0,4.768,1.608,5.601,3.544l5.601-2.557c-1.665-3.213-4.92-6.533-11.202-6.533
				c-7.568,0-13.468,5.072-13.468,12.597C10.114,59.891,16.014,65,23.582,65"/>
		</g>
	</g>
	<g>
		<g>
			<defs>
				<rect id="SVGID_3_" width="200" height="75"/>
			</defs>
			<clipPath id="SVGID_4_">
				<use xlink:href="#SVGID_3_"  overflow="visible"/>
			</clipPath>
			<path clip-path="url(#SVGID_4_)" fill="none" stroke="#231F20" stroke-width="0.5" d="M181.927,48.239
				c0,1.681-1.439,2.741-3.143,2.741h-5.149v-5.483h5.149C180.488,45.497,181.927,46.557,181.927,48.239z M181.208,64.562h7.451
				l-5.143-8.947c2.344-0.803,5.029-3.066,5.029-7.303c0-4.53-3.176-8.106-8.776-8.106H167.13v24.356h6.505v-8.254h3.332
				L181.208,64.562z M144.84,64.562h18.501v-5.291h-11.997v-4.388h11.732v-5.327h-11.732v-4.059h11.997v-5.291H144.84V64.562z
				 M128.188,64.562h6.505V45.68h7.039v-5.474h-20.621v5.474h7.077V64.562z M111.726,64.562h6.278V40.206h-6.543v14.022
				l-10.222-14.022h-6.694v24.356h6.504V49.846L111.726,64.562z M66.578,54.705c0,5.989,3.63,10.295,11.729,10.295
				s11.692-4.27,11.692-10.331V40.206h-6.618v14.28c0,2.886-1.591,4.967-5.074,4.967c-3.521,0-5.111-2.081-5.111-4.967v-14.28
				h-6.618L66.578,54.705L66.578,54.705z M56.663,52.402c0,3.946-2.688,7.051-6.853,7.051c-4.202,0-6.89-3.105-6.89-7.051
				c0-3.982,2.688-7.051,6.89-7.051C53.975,45.351,56.663,48.42,56.663,52.402z M36.302,52.402C36.302,59.818,42.088,65,49.81,65
				s13.471-5.182,13.471-12.598S57.532,39.805,49.81,39.805S36.302,44.986,36.302,52.402z M23.582,65
				c6.282,0,9.575-3.394,11.202-6.533l-5.601-2.557c-0.833,1.936-2.99,3.543-5.601,3.543c-3.936,0-6.85-3.069-6.85-7.051
				s2.914-7.051,6.85-7.051c2.611,0,4.768,1.608,5.601,3.544l5.601-2.557c-1.665-3.213-4.92-6.533-11.202-6.533
				c-7.568,0-13.468,5.072-13.468,12.597C10.114,59.891,16.014,65,23.582,65z"/>
		</g>
	</g>
	<g>
		<g>
			<defs>
				<rect id="SVGID_5_" width="200" height="75"/>
			</defs>
			<clipPath id="SVGID_6_">
				<use xlink:href="#SVGID_5_"  overflow="visible"/>
			</clipPath>
		</g>
	</g>
	<g>
		<g>
			<defs>
				<rect id="SVGID_7_" width="200" height="75"/>
			</defs>
			<clipPath id="SVGID_8_">
				<use xlink:href="#SVGID_7_"  overflow="visible"/>
			</clipPath>
			<path clip-path="url(#SVGID_8_)" fill="#CF2421" d="M158.658,13.673c-1.577,0.025-3.138,0.553-4.685,0.823
				c-2.359,0.507-4.575-1.052-6.927-0.575c-2.45,0.484-4.165,2.392-5.122,4.548c0.042,0.01,0.084,0.017,0.125,0.029
				c0.097,0.026,0.194,0.058,0.288,0.092c0.095,0.035,0.188,0.074,0.278,0.117c0.091,0.043,0.18,0.089,0.267,0.139
				c0.086,0.05,0.17,0.104,0.252,0.162c0.081,0.057,0.161,0.118,0.237,0.182c0.077,0.064,0.149,0.132,0.219,0.203
				c0.088,0.089,0.172,0.183,0.249,0.281c0.076,0.099,0.147,0.202,0.212,0.308s0.124,0.216,0.176,0.328
				c0.053,0.113,0.098,0.228,0.138,0.345c0.04,0.118,0.072,0.238,0.098,0.358c0.026,0.121,0.046,0.243,0.058,0.365
				c0.012,0.123,0.017,0.246,0.015,0.369c-0.002,0.124-0.012,0.248-0.029,0.37c0.066,0.031,0.13,0.065,0.193,0.101
				s0.124,0.074,0.184,0.114c0.061,0.04,0.119,0.082,0.177,0.126c0.057,0.045,0.112,0.091,0.166,0.138
				c0.054,0.048,0.106,0.098,0.157,0.149c0.05,0.051,0.099,0.104,0.146,0.158c0.046,0.055,0.09,0.111,0.133,0.169
				c0.042,0.057,0.083,0.116,0.121,0.176c0.038,0.06,0.074,0.122,0.107,0.185c0.034,0.062,0.066,0.127,0.095,0.192
				c0.029,0.064,0.056,0.13,0.08,0.197c0.024,0.066,0.046,0.133,0.066,0.201c0.019,0.069,0.037,0.137,0.051,0.206
				c0.015,0.07,0.026,0.14,0.036,0.21s0.017,0.14,0.022,0.21c0.004,0.071,0.006,0.141,0.005,0.212
				c-0.001,0.085-0.006,0.171-0.014,0.256c-0.009,0.085-0.021,0.169-0.036,0.253c-0.016,0.084-0.036,0.167-0.059,0.25
				c-0.023,0.082-0.05,0.164-0.08,0.244s-0.063,0.16-0.1,0.237c-0.037,0.078-0.077,0.153-0.12,0.228
				c-0.044,0.074-0.09,0.147-0.14,0.217c-0.05,0.071-0.103,0.139-0.159,0.205c0.103,0.093,0.202,0.192,0.296,0.294
				c0.093,0.102,0.181,0.209,0.264,0.32c0.082,0.11,0.16,0.225,0.232,0.342c0.071,0.118,0.138,0.239,0.198,0.362
				c0.06,0.124,0.114,0.25,0.162,0.379c0.047,0.128,0.089,0.259,0.124,0.391c0.035,0.133,0.064,0.266,0.085,0.401
				c0.022,0.135,0.037,0.27,0.045,0.407c0.01,0.157,0.009,0.316,0,0.473c-0.01,0.158-0.03,0.314-0.057,0.469
				c-0.028,0.156-0.064,0.31-0.109,0.462s-0.098,0.301-0.159,0.448c-0.062,0.146-0.132,0.289-0.209,0.428
				c-0.078,0.139-0.162,0.274-0.255,0.404c-0.092,0.13-0.192,0.255-0.299,0.375c-0.106,0.119-0.22,0.232-0.341,0.339
				c-0.12,0.107-0.247,0.206-0.379,0.299c-0.075,0.053-0.155,0.097-0.234,0.145c0.71,0.81,1.498,1.552,2.353,2.206
				c1.124,0.818,2.568,0.968,3.93,0.878c2.313-0.254,4.62,0.166,6.933,0.11c1.761,0.026,3.311-0.907,4.523-2.065
				c3.406-3.195,5.442-7.919,4.869-12.524c-0.446-3.796-3.291-7.451-7.269-8.251C159.712,13.712,159.184,13.664,158.658,13.673"/>
		</g>
	</g>
	<g>
		<g>
			<defs>
				<rect id="SVGID_9_" width="200" height="75"/>
			</defs>
			<clipPath id="SVGID_10_">
				<use xlink:href="#SVGID_9_"  overflow="visible"/>
			</clipPath>
			<path clip-path="url(#SVGID_10_)" fill="#331C0D" d="M152.974,14.245c0.297-0.793,0.481-1.625,0.545-2.466
				c0.086-1.118-0.041-2.25-0.372-3.324l-1.768,0.095c0.535,0.866,0.945,1.804,1.214,2.778
				C152.855,12.278,152.984,13.263,152.974,14.245"/>
		</g>
	</g>
	<g>
		<g>
			<defs>
				<rect id="SVGID_11_" width="200" height="75"/>
			</defs>
			<clipPath id="SVGID_12_">
				<use xlink:href="#SVGID_11_"  overflow="visible"/>
			</clipPath>
			<path clip-path="url(#SVGID_12_)" fill="#4A7800" d="M153.794,12.108c0.6-1.275,1.56-2.389,2.748-3.192
				c1.189-0.802,2.603-1.29,4.048-1.396c1.006-0.074,2.026,0.035,2.99,0.318c-0.933,1.799-2.575,3.244-4.516,3.977
				C157.397,12.443,155.524,12.548,153.794,12.108"/>
		</g>
	</g>
	<g>
		<g>
			<defs>
				<rect id="SVGID_13_" width="200" height="75"/>
			</defs>
			<clipPath id="SVGID_14_">
				<use xlink:href="#SVGID_13_"  overflow="visible"/>
			</clipPath>
			<path clip-path="url(#SVGID_14_)" fill="#FFFFFF" d="M162.48,16.189c0.838,0.612,1.469,1.485,1.775,2.456
				c0.305,0.971,0.284,2.035-0.06,2.994c-0.17,0.475-0.417,0.924-0.545,1.411c-0.064,0.243-0.097,0.496-0.073,0.746
				c0.023,0.25,0.106,0.497,0.259,0.7c0.124,0.164,0.291,0.296,0.48,0.383s0.399,0.13,0.609,0.126
				c0.419-0.006,0.826-0.199,1.107-0.499c0.207-0.222,0.348-0.496,0.435-0.783c0.088-0.286,0.124-0.584,0.14-0.883
				c0.074-1.368-0.284-2.756-1.014-3.932S163.765,16.772,162.48,16.189"/>
		</g>
	</g>
	<g>
		<g>
			<defs>
				<rect id="SVGID_15_" width="200" height="75"/>
			</defs>
			<clipPath id="SVGID_16_">
				<use xlink:href="#SVGID_15_"  overflow="visible"/>
			</clipPath>
			<path clip-path="url(#SVGID_16_)" fill="#BD211C" d="M146.694,28.447c0.001,0.002,0.002,0.005,0.003,0.008
				c0.048,0.128,0.089,0.26,0.124,0.392c0.035,0.132,0.064,0.265,0.085,0.4c0.022,0.135,0.038,0.271,0.045,0.407
				c0.01,0.157,0.009,0.316,0,0.474c-0.01,0.157-0.03,0.313-0.057,0.469c-0.028,0.155-0.064,0.31-0.109,0.461
				c-0.045,0.152-0.098,0.301-0.159,0.448c-0.062,0.146-0.132,0.289-0.209,0.428c-0.078,0.139-0.162,0.274-0.255,0.404
				c-0.092,0.13-0.192,0.255-0.299,0.375c-0.106,0.119-0.22,0.233-0.341,0.339c-0.12,0.107-0.247,0.207-0.379,0.299
				c-0.075,0.053-0.155,0.098-0.234,0.146c0.71,0.809,1.498,1.551,2.353,2.205c1.124,0.818,2.568,0.969,3.93,0.878
				c2.314-0.254,4.62,0.166,6.933,0.11c1.761,0.026,3.311-0.906,4.523-2.065c0.938-0.88,1.773-1.877,2.477-2.955
				c-1.327,0.531-2.734,0.87-4.15,0.985C155.883,33.105,150.749,31.424,146.694,28.447"/>
		</g>
	</g>
</g>
<g>
	<path fill="#FFF200" d="M20.138,27.566l-2.412,2.484v4.679h-3.779V10.72h3.779v15.01l7.667-8.387h4.68l-7.235,7.883l7.379,9.503
		h-4.751L20.138,27.566z"/>
	<path fill="#FFF200" d="M32.415,12.124c0-1.296,1.08-2.34,2.339-2.34c1.296,0,2.34,1.044,2.34,2.34c0,1.295-1.044,2.339-2.34,2.339
		C33.494,14.463,32.415,13.419,32.415,12.124z M32.882,17.343h3.779v17.386h-3.779V17.343z"/>
	<path fill="#FFF200" d="M42.314,30.698V20.655h-2.88v-3.312h2.88v-4.751h3.779v4.751h3.528v3.312h-3.528v9.107
		c0,1.188,0.576,2.052,1.656,2.052c0.72,0,1.404-0.288,1.691-0.612l0.9,2.843c-0.684,0.648-1.8,1.116-3.563,1.116
		C43.862,35.161,42.314,33.577,42.314,30.698z"/>
	<path fill="#FFF200" d="M60.96,16.911c3.384,0,5.436,1.44,6.659,3.096l-2.484,2.304c-0.972-1.368-2.304-2.052-3.995-2.052
		c-3.168,0-5.255,2.375-5.255,5.759s2.087,5.795,5.255,5.795c1.691,0,3.023-0.72,3.995-2.052l2.484,2.304
		c-1.224,1.656-3.275,3.096-6.659,3.096c-5.292,0-8.999-3.852-8.999-9.143C51.961,20.763,55.669,16.911,60.96,16.911z"/>
	<path fill="#FFF200" d="M82.704,23.787c0-2.7-1.404-3.528-3.528-3.528c-1.908,0-3.563,1.152-4.463,2.34v12.13h-3.779V10.72h3.779
		v8.999c1.152-1.368,3.42-2.808,6.155-2.808c3.744,0,5.615,1.944,5.615,5.507v12.311h-3.779V23.787z"/>
	<path fill="#FFF200" d="M99.121,16.911c5.218,0,8.566,3.996,8.566,9.467v0.9H94.261c0.288,2.628,2.268,4.788,5.543,4.788
		c1.691,0,3.708-0.684,4.931-1.908l1.728,2.483c-1.728,1.656-4.283,2.52-7.054,2.52c-5.22,0-9.107-3.636-9.107-9.143
		C90.301,20.979,93.973,16.911,99.121,16.911z M94.225,24.614h9.791c-0.072-2.052-1.477-4.607-4.895-4.607
		C95.88,20.007,94.405,22.491,94.225,24.614z"/>
	<path fill="#FFF200" d="M123.167,23.858c0-2.7-1.368-3.6-3.492-3.6c-1.943,0-3.6,1.152-4.463,2.34v12.13h-3.78V17.343h3.78v2.375
		c1.151-1.368,3.383-2.808,6.119-2.808c3.743,0,5.615,2.016,5.615,5.58v12.238h-3.779V23.858z"/>
</g>
</svg>
